<svg width="24" height="24" viewBox="0 0 100 100" fill="none" xmlns="http://www.w3.org/2000/svg">
<path fill-rule="evenodd" clip-rule="evenodd" d="M24.9459 58.2072C29.5384 58.2072 33.2613 54.4843 33.2613 49.8919C33.2613 45.2995 29.5384 41.5766 24.9459 41.5766C20.3535 41.5766 16.6306 45.2995 16.6306 49.8919C16.6306 54.4843 20.3535 58.2072 24.9459 58.2072ZM58.2072 49.8919C58.2072 54.4843 54.4843 58.2072 49.8919 58.2072C45.2995 58.2072 41.5766 54.4843 41.5766 49.8919C41.5766 45.2995 45.2995 41.5766 49.8919 41.5766C54.4843 41.5766 58.2072 45.2995 58.2072 49.8919ZM83.1532 49.8919C83.1532 54.4843 79.4303 58.2072 74.8378 58.2072C70.2454 58.2072 66.5225 54.4843 66.5225 49.8919C66.5225 45.2995 70.2454 41.5766 74.8378 41.5766C79.4303 41.5766 83.1532 45.2995 83.1532 49.8919Z" fill="white"/>
</svg>
